<svg xmlns="http://www.w3.org/2000/svg" viewBox="0 0 1200 800" role="img" aria-labelledby="t d">
<title id="t">QuantDeus Frutiger Aero World</title>
<desc id="d">Bright blue sky, green hills, water, bubbles and a glassy future city in Frutiger Aero style.</desc>
<defs>
  <linearGradient id="sky" x1="0" y1="0" x2="0" y2="1"><stop stop-color="#45cfff"/><stop offset=".58" stop-color="#b8f5ff"/><stop offset="1" stop-color="#f5ffff"/></linearGradient>
  <linearGradient id="grass" x1="0" y1="0" x2="0" y2="1"><stop stop-color="#8af089"/><stop offset="1" stop-color="#1aa85e"/></linearGradient>
  <linearGradient id="water" x1="0" y1="0" x2="1" y2="1"><stop stop-color="#68ecff"/><stop offset="1" stop-color="#1198c9"/></linearGradient>
  <radialGradient id="bubble"><stop stop-color="#fff" stop-opacity=".85"/><stop offset=".35" stop-color="#b5f8ff" stop-opacity=".28"/><stop offset="1" stop-color="#47d8ff" stop-opacity=".08"/></radialGradient>
  <filter id="glow"><feGaussianBlur stdDeviation="10"/></filter>
</defs>
<rect width="1200" height="800" fill="url(#sky)"/>
<circle cx="1010" cy="125" r="72" fill="#fff9b8"/><circle cx="1010" cy="125" r="110" fill="#fff" opacity=".24" filter="url(#glow)"/>
<g fill="#fff" opacity=".95">
  <ellipse cx="210" cy="150" rx="120" ry="42"/><ellipse cx="300" cy="142" rx="90" ry="55"/><ellipse cx="895" cy="210" rx="128" ry="46"/><ellipse cx="990" cy="202" rx="96" ry="54"/>
</g>
<path d="M0 505 C180 380 310 390 470 505 C610 365 770 360 930 500 C1035 440 1110 445 1200 490 L1200 800 L0 800Z" fill="url(#grass)"/>
<path d="M0 610 C270 540 500 620 730 580 C920 545 1060 555 1200 620 L1200 800 L0 800Z" fill="#d7ffe3" opacity=".75"/>
<path d="M170 800 C250 650 420 590 620 650 C770 700 900 690 1080 610 L1200 800Z" fill="url(#water)" opacity=".92"/>
<g fill="#ecffff" stroke="#fff" stroke-width="6" opacity=".92">
  <path d="M690 475 h70 l20 115 h-110z"/><path d="M790 430 h64 l26 160 h-120z"/><path d="M890 470 h58 l22 120 h-102z"/>
  <rect x="735" y="490" width="18" height="58" rx="9" fill="#8cecff"/><rect x="812" y="452" width="18" height="72" rx="9" fill="#8cecff"/><rect x="908" y="490" width="18" height="55" rx="9" fill="#8cecff"/>
</g>
<g fill="url(#bubble)" stroke="#fff" stroke-width="3">
  <circle cx="180" cy="300" r="58"/><circle cx="370" cy="230" r="32"/><circle cx="545" cy="330" r="75"/><circle cx="1050" cy="330" r="44"/><circle cx="950" cy="570" r="28"/>
</g>
<g fill="#fff" opacity=".85"><circle cx="158" cy="278" r="10"/><circle cx="520" cy="300" r="13"/><circle cx="1034" cy="315" r="8"/></g>
<g transform="translate(185 535)">
  <ellipse cx="0" cy="0" rx="65" ry="18" fill="#086b80" opacity=".18"/>
  <circle cx="0" cy="-80" r="42" fill="#e9ffff" stroke="#fff" stroke-width="5"/>
  <path d="M-34 -54 h68 l24 102 h-116z" fill="#e8faff" stroke="#fff" stroke-width="5"/>
  <rect x="-65" y="-30" width="35" height="85" rx="16" fill="#d9f8ff" transform="rotate(18 -65 -30)"/>
  <rect x="30" y="-30" width="35" height="85" rx="16" fill="#d9f8ff" transform="rotate(-18 30 -30)"/>
  <circle cx="0" cy="-82" r="27" fill="#63cde7" opacity=".5"/><path d="M-20 -78 q20 -18 40 0" stroke="#fff" stroke-width="5" fill="none"/>
  <rect x="-26" y="-30" width="52" height="28" rx="10" fill="#77e9a6"/><text x="0" y="-10" text-anchor="middle" font-family="Arial" font-weight="700" font-size="15" fill="#075b6e">QD</text>
</g>
</svg>